<svg xmlns="http://www.w3.org/2000/svg" version="1.1" xmlns:xlink="http://www.w3.org/1999/xlink" xmlns:svgjs="http://svgjs.dev/svgjs" width="1500" height="412" viewBox="0 0 1500 412"><g transform="matrix(1,0,0,1,-0.9090909090909918,0.25958232513130497)"><svg viewBox="0 0 396 109" data-background-color="#ffffff" preserveAspectRatio="xMidYMid meet" height="412" width="1500" xmlns="http://www.w3.org/2000/svg" xmlns:xlink="http://www.w3.org/1999/xlink"><g id="tight-bounds" transform="matrix(1,0,0,1,0.2400000000000091,-0.06867590640609933)"><svg viewBox="0 0 395.52 109.1373518128122" height="109.1373518128122" width="395.52"><g><svg viewBox="0 0 554.3422252546202 152.9617780701625" height="109.1373518128122" width="395.52"><g><rect width="9.557449565016077" height="152.9617780701625" x="124.2452742105044" y="0" fill="#000000" opacity="1" stroke-width="0" stroke="transparent" fill-opacity="1" class="rect-qz-0" data-fill-palette-color="primary" rx="1%" id="qz-0" data-palette-color="#000000"></rect></g><g transform="matrix(1,0,0,1,158.82222525462018,0.3805019354979038)"><svg viewBox="0 0 395.52 152.2007741991667" height="152.2007741991667" width="395.52"><g id="textblocktransform"><svg viewBox="0 0 395.52 152.2007741991667" height="152.2007741991667" width="395.52" id="textblock"><g><svg viewBox="0 0 395.52 105.98070739549838" height="105.98070739549838" width="395.52"><g transform="matrix(1,0,0,1,0,0)"><svg width="395.52" viewBox="2.25 -37 139.94 37.5" height="105.98070739549838" data-palette-color="#000000"><path d="M29.6-32.7L29.6-32.7Q30.45-32.25 30.58-31.35 30.7-30.45 30.1-29.7L30.1-29.7Q29.65-29.05 28.95-29 28.25-28.95 27.55-29.3L27.55-29.3Q25.9-30.3 24-30.88 22.1-31.45 20-31.45L20-31.45Q17.05-31.45 14.6-30.43 12.15-29.4 10.35-27.55 8.55-25.7 7.55-23.15 6.55-20.6 6.55-17.5L6.55-17.5Q6.55-14.2 7.6-11.6 8.65-9 10.48-7.18 12.3-5.35 14.73-4.4 17.15-3.45 20-3.45L20-3.45Q22.05-3.45 23.95-4 25.85-4.55 27.55-5.6L27.55-5.6Q28.25-5.95 28.95-5.85 29.65-5.75 30.15-5.15L30.15-5.15Q30.75-4.35 30.6-3.48 30.45-2.6 29.65-2.2L29.65-2.2Q28.4-1.45 26.8-0.83 25.2-0.2 23.48 0.15 21.75 0.5 20 0.5L20 0.5Q16.4 0.5 13.2-0.75 10-2 7.55-4.35 5.1-6.7 3.68-10.03 2.25-13.35 2.25-17.5L2.25-17.5Q2.25-21.4 3.6-24.65 4.95-27.9 7.38-30.3 9.8-32.7 13.03-34.05 16.25-35.4 20-35.4L20-35.4Q22.6-35.4 25.08-34.7 27.55-34 29.6-32.7ZM40.35-35L40.35-2.05Q40.35-1.2 39.75-0.6 39.15 0 38.3 0L38.3 0Q37.45 0 36.9-0.6 36.35-1.2 36.35-2.05L36.35-2.05 36.35-35Q36.35-35.85 36.92-36.43 37.5-37 38.35-37L38.35-37Q39.25-37 39.8-36.43 40.35-35.85 40.35-35L40.35-35ZM71.9-13L71.9-13Q71.9-9.1 70.2-6.05 68.5-3 65.57-1.25 62.65 0.5 58.95 0.5L58.95 0.5Q55.3 0.5 52.37-1.25 49.45-3 47.72-6.05 46-9.1 46-13L46-13Q46-16.9 47.72-19.95 49.45-23 52.37-24.75 55.3-26.5 58.95-26.5L58.95-26.5Q62.65-26.5 65.57-24.75 68.5-23 70.2-19.95 71.9-16.9 71.9-13ZM67.9-13L67.9-13Q67.9-15.9 66.72-18.1 65.55-20.3 63.52-21.55 61.5-22.8 58.95-22.8L58.95-22.8Q56.45-22.8 54.4-21.55 52.35-20.3 51.17-18.1 50-15.9 50-13L50-13Q50-10.15 51.17-7.95 52.35-5.75 54.4-4.48 56.45-3.2 58.95-3.2L58.95-3.2Q61.5-3.2 63.52-4.48 65.55-5.75 66.72-7.95 67.9-10.15 67.9-13ZM76.24-4.1L76.24-4.1Q75.79-4.75 75.84-5.48 75.89-6.2 76.69-6.75L76.69-6.75Q77.19-7.1 77.87-7.05 78.54-7 79.09-6.4L79.09-6.4Q80.49-4.75 82.29-3.78 84.09-2.8 86.69-2.8L86.69-2.8Q87.89-2.85 89.09-3.2 90.29-3.55 91.12-4.42 91.94-5.3 91.94-6.75L91.94-6.75Q91.94-8.15 91.09-8.97 90.24-9.8 88.89-10.33 87.54-10.85 85.94-11.25L85.94-11.25Q84.29-11.7 82.69-12.28 81.09-12.85 79.82-13.73 78.54-14.6 77.77-15.93 76.99-17.25 76.99-19.15L76.99-19.15Q76.99-21.4 78.22-23.05 79.44-24.7 81.52-25.6 83.59-26.5 86.04-26.5L86.04-26.5Q87.44-26.5 88.97-26.18 90.49-25.85 91.94-25.08 93.39-24.3 94.49-22.95L94.49-22.95Q94.94-22.45 94.99-21.7 95.04-20.95 94.34-20.35L94.34-20.35Q93.79-19.95 93.12-20 92.44-20.05 91.99-20.5L91.99-20.5Q90.94-21.75 89.37-22.43 87.79-23.1 85.89-23.1L85.89-23.1Q84.69-23.1 83.54-22.75 82.39-22.4 81.62-21.58 80.84-20.75 80.84-19.3L80.84-19.3Q80.89-17.95 81.74-17.1 82.59-16.25 84.04-15.73 85.49-15.2 87.24-14.7L87.24-14.7Q88.84-14.3 90.32-13.78 91.79-13.25 92.99-12.4 94.19-11.55 94.89-10.23 95.59-8.9 95.59-6.9L95.59-6.9Q95.59-4.6 94.29-2.93 92.99-1.25 90.87-0.38 88.74 0.5 86.29 0.5L86.29 0.5Q83.54 0.5 80.87-0.55 78.19-1.6 76.24-4.1ZM113.09 0.5L113.09 0.5Q109.09 0.5 106.09-1.2 103.09-2.9 101.44-5.88 99.79-8.85 99.79-12.75L99.79-12.75Q99.79-17.1 101.52-20.18 103.24-23.25 105.99-24.88 108.74-26.5 111.84-26.5L111.84-26.5Q114.19-26.5 116.32-25.65 118.44-24.8 120.12-23.18 121.79-21.55 122.79-19.28 123.79-17 123.84-14.2L123.84-14.2Q123.79-13.4 123.19-12.85 122.59-12.3 121.79-12.3L121.79-12.3 102.04-12.3 101.14-15.75 120.39-15.75 119.59-15.05 119.59-16.15Q119.44-18.2 118.27-19.68 117.09-21.15 115.39-21.95 113.69-22.75 111.84-22.75L111.84-22.75Q110.34-22.75 108.87-22.23 107.39-21.7 106.22-20.53 105.04-19.35 104.34-17.5 103.64-15.65 103.64-13.05L103.64-13.05Q103.64-10.15 104.82-7.95 105.99-5.75 108.09-4.48 110.19-3.2 112.94-3.2L112.94-3.2Q114.74-3.2 116.04-3.65 117.34-4.1 118.27-4.78 119.19-5.45 119.84-6.15L119.84-6.15Q120.49-6.6 121.14-6.6L121.14-6.6Q121.84-6.6 122.34-6.1 122.84-5.6 122.84-4.9L122.84-4.9Q122.84-4.05 122.04-3.4L122.04-3.4Q120.59-1.85 118.22-0.68 115.84 0.5 113.09 0.5ZM128.59-25.7L128.59-25.7 140.34-25.7Q141.14-25.7 141.66-25.15 142.19-24.6 142.19-23.85L142.19-23.85Q142.19-23.05 141.66-22.53 141.14-22 140.34-22L140.34-22 128.59-22Q127.84-22 127.29-22.55 126.74-23.1 126.74-23.9L126.74-23.9Q126.74-24.65 127.29-25.18 127.84-25.7 128.59-25.7ZM133.84-32.5L133.84-32.5Q134.69-32.5 135.24-31.93 135.79-31.35 135.79-30.5L135.79-30.5 135.79-6.35Q135.79-5.15 136.14-4.55 136.49-3.95 137.06-3.73 137.64-3.5 138.19-3.5L138.19-3.5Q138.69-3.5 139.06-3.68 139.44-3.85 139.94-3.85L139.94-3.85Q140.44-3.85 140.86-3.38 141.29-2.9 141.29-2.15L141.29-2.15Q141.29-1.25 140.24-0.63 139.19 0 137.89 0L137.89 0Q137.19 0 136.16-0.1 135.14-0.2 134.14-0.75 133.14-1.3 132.46-2.58 131.79-3.85 131.79-6.15L131.79-6.15 131.79-30.5Q131.79-31.35 132.39-31.93 132.99-32.5 133.84-32.5Z" opacity="1" transform="matrix(1,0,0,1,0,0)" fill="#000000" class="wordmark-text-0" data-fill-palette-color="primary" id="text-0"></path></svg></g></svg></g><g transform="matrix(1,0,0,1,0,131.00020887459806)"><svg viewBox="0 0 232.209792 21.200565324568608" height="21.200565324568608" width="232.209792"><g transform="matrix(1,0,0,1,0,0)"><svg width="232.209792" viewBox="-0.05 -37.5 547.5799999999999 50" height="21.200565324568608" data-palette-color="#61777f"><path d="M20.15-35L25.2-35 14.9-15.15 14.9 0 10.35 0 10.35-15.15-0.05-35 5-35 12.6-19.95 20.15-35ZM33.6 0.5Q30.3 0.5 27.9-1.18 25.5-2.85 24.22-5.75 22.95-8.65 22.95-12.25L22.95-12.25Q22.95-15.85 24.22-18.75 25.5-21.65 27.9-23.33 30.3-25 33.6-25L33.6-25Q36.85-25 39.25-23.33 41.65-21.65 42.9-18.75 44.15-15.85 44.15-12.25L44.15-12.25Q44.15-8.65 42.9-5.75 41.65-2.85 39.25-1.18 36.85 0.5 33.6 0.5L33.6 0.5ZM33.6-3.35Q36.5-3.35 38.1-5.7 39.7-8.05 39.7-12.25L39.7-12.25Q39.7-16.45 38.1-18.78 36.5-21.1 33.6-21.1L33.6-21.1Q30.6-21.1 29-18.78 27.4-16.45 27.4-12.25L27.4-12.25Q27.4-8 29-5.68 30.6-3.35 33.6-3.35L33.6-3.35ZM61.34-24.5L65.69-24.5 65.69 0 62 0 61.7-3Q60.7-1.35 58.99-0.43 57.3 0.5 55.24 0.5L55.24 0.5Q51.39 0.5 49.52-2.08 47.64-4.65 47.64-9.45L47.64-9.45 47.64-24.5 51.99-24.5 51.99-10Q51.99-6.7 52.97-5.08 53.95-3.45 56.24-3.45L56.24-3.45Q57.84-3.45 59.14-4.35 60.45-5.25 61.34-6.85L61.34-6.85 61.34-24.5ZM71.94 0L71.94-24.5 75.49-24.5 76.04-20.4Q77.69-22.8 79.17-23.9 80.64-25 82.29-25L82.29-25Q82.94-25 83.44-24.85L83.44-24.85 82.99-19.9Q82.34-20.05 81.49-20.05L81.49-20.05Q79.84-20.05 78.39-19.23 76.94-18.4 76.29-17.3L76.29-17.3 76.29 0 71.94 0ZM111.04-37.5L115.39-37.5 115.39 0 111.54 0 111.19-2.25Q110.04-0.9 108.44-0.2 106.84 0.5 104.94 0.5L104.94 0.5Q102.09 0.5 99.84-1.18 97.59-2.85 96.29-5.75 94.99-8.65 94.99-12.2L94.99-12.2Q94.99-15.65 96.21-18.57 97.44-21.5 99.71-23.25 101.99-25 104.94-25L104.94-25Q108.59-25 111.04-22.45L111.04-22.45 111.04-37.5ZM105.39-3.35Q108.14-3.35 109.79-5.53 111.44-7.7 111.44-12.2L111.44-12.2Q111.44-16.55 109.79-18.82 108.14-21.1 105.39-21.1L105.39-21.1Q103.69-21.1 102.34-19.95 100.99-18.8 100.21-16.78 99.44-14.75 99.44-12.2L99.44-12.2Q99.44-9.8 100.21-7.78 100.99-5.75 102.36-4.55 103.74-3.35 105.39-3.35L105.39-3.35ZM121.04-30.05L121.04-35 125.39-35 125.39-30.05 121.04-30.05ZM121.04 0L121.04-24.5 125.39-24.5 125.39 0 121.04 0ZM139.18 12.5Q134.83 12.5 132.11 10.73 129.38 8.95 129.38 5.85L129.38 5.85Q129.38 2.3 133.28-0.35L133.28-0.35Q130.98-1.45 130.98-3.7L130.98-3.7Q130.98-4.85 131.68-5.73 132.38-6.6 133.68-7.1L133.68-7.1Q131.83-8.4 130.83-10.6 129.83-12.8 129.83-15.45L129.83-15.45Q129.83-18.15 130.88-20.33 131.93-22.5 133.91-23.75 135.88-25 138.53-25L138.53-25Q141.73-25 143.93-23.2L143.93-23.2Q145.88-25 148.08-25L148.08-25Q148.73-25 149.33-24.9L149.33-24.9 148.88-21.4Q148.38-21.5 147.88-21.5L147.88-21.5Q146.83-21.5 145.78-21.05L145.78-21.05Q147.23-18.7 147.23-15.45L147.23-15.45Q147.23-12.75 146.18-10.53 145.13-8.3 143.16-6.98 141.18-5.65 138.53-5.65L138.53-5.65Q137.13-5.65 136.03-6L136.03-6Q135.08-5.6 135.08-4.85L135.08-4.85Q135.08-4.2 135.73-3.83 136.38-3.45 138.03-2.95L138.03-2.95 141.48-1.9Q144.58-0.95 146.36-0.03 148.13 0.9 148.98 2.18 149.83 3.45 149.83 5.35L149.83 5.35Q149.83 8.75 146.88 10.63 143.93 12.5 139.18 12.5L139.18 12.5ZM138.53-9.1Q140.68-9.1 141.88-10.83 143.08-12.55 143.08-15.4L143.08-15.4Q143.08-18.1 141.88-19.8 140.68-21.5 138.53-21.5L138.53-21.5Q136.38-21.5 135.18-19.83 133.98-18.15 133.98-15.4L133.98-15.4Q133.98-12.55 135.18-10.83 136.38-9.1 138.53-9.1L138.53-9.1ZM139.48 8.95Q142.18 8.95 143.81 8.1 145.43 7.25 145.43 5.6L145.43 5.6Q145.43 4.25 144.43 3.48 143.43 2.7 140.78 1.9L140.78 1.9 136.78 0.7Q133.38 2.85 133.38 5.2L133.38 5.2Q133.38 7.05 135.01 8 136.63 8.95 139.48 8.95L139.48 8.95ZM152.43-30.05L152.43-35 156.78-35 156.78-30.05 152.43-30.05ZM152.43 0L152.43-24.5 156.78-24.5 156.78 0 152.43 0ZM169.58 0.5Q166.73 0.5 165.35-1.2 163.98-2.9 163.98-5.35L163.98-5.35 163.98-21.05 160.58-21.05 160.98-24.5 163.98-24.5 163.98-30.55 168.33-31 168.33-24.5 173.63-24.5 173.63-21.05 168.33-21.05 168.33-7.1Q168.33-4.85 169.15-3.95 169.98-3.05 172.03-3.05L172.03-3.05 173.58-3.05 173.18 0.5 169.58 0.5ZM182.23 0.5Q179.43 0.5 177.63-1.5 175.83-3.5 175.83-6.6L175.83-6.6Q175.83-11.2 179.68-13.23 183.53-15.25 188.28-15.35L188.28-15.35Q188.28-18.55 187.33-19.8 186.38-21.05 184.13-21.05L184.13-21.05Q181.23-21.05 178.23-18.8L178.23-18.8 177.68-22.45Q180.83-25 184.98-25L184.98-25Q188.93-25 190.83-22.73 192.73-20.45 192.73-15.4L192.73-15.4 192.73-8.25Q192.73-5.4 193.13-4.23 193.53-3.05 194.88-3.05L194.88-3.05 195.43-3.05 194.88 0.5 193.93 0.5Q191.63 0.5 190.53-0.35 189.43-1.2 188.73-3.1L188.73-3.1Q187.58-1.45 185.88-0.48 184.18 0.5 182.23 0.5L182.23 0.5ZM183.58-3.05Q184.78-3.05 186.08-3.98 187.38-4.9 188.28-6.4L188.28-6.4 188.28-12.25Q184.43-12.05 182.43-10.78 180.43-9.5 180.43-6.85L180.43-6.85Q180.43-3.05 183.58-3.05L183.58-3.05ZM204.57 0.5Q201.77 0.5 200.42-1.2 199.07-2.9 199.07-5.4L199.07-5.4 199.07-37.5 203.42-37.5 203.42-8Q203.42-5.8 203.65-4.78 203.87-3.75 204.52-3.4 205.17-3.05 206.62-3.05L206.62-3.05 206.07 0.5 204.57 0.5ZM226.47 0L217.82-35 222.72-35 229.02-6.35 235.62-34.3 240.77-34.3 247.32-6.35 253.67-35 258.52-35 249.92 0 244.77 0 238.12-27.7 231.62 0 226.47 0ZM265.02 0.5Q262.22 0.5 260.42-1.5 258.62-3.5 258.62-6.6L258.62-6.6Q258.62-11.2 262.47-13.23 266.31-15.25 271.06-15.35L271.06-15.35Q271.06-18.55 270.12-19.8 269.17-21.05 266.92-21.05L266.92-21.05Q264.02-21.05 261.02-18.8L261.02-18.8 260.47-22.45Q263.62-25 267.77-25L267.77-25Q271.72-25 273.62-22.73 275.52-20.45 275.52-15.4L275.52-15.4 275.52-8.25Q275.52-5.4 275.92-4.23 276.31-3.05 277.67-3.05L277.67-3.05 278.22-3.05 277.67 0.5 276.72 0.5Q274.42 0.5 273.31-0.35 272.22-1.2 271.52-3.1L271.52-3.1Q270.37-1.45 268.67-0.48 266.97 0.5 265.02 0.5L265.02 0.5ZM266.37-3.05Q267.56-3.05 268.87-3.98 270.17-4.9 271.06-6.4L271.06-6.4 271.06-12.25Q267.22-12.05 265.22-10.78 263.22-9.5 263.22-6.85L263.22-6.85Q263.22-3.05 266.37-3.05L266.37-3.05ZM281.96 0L281.96-24.5 285.51-24.5 286.06-20.4Q287.71-22.8 289.19-23.9 290.66-25 292.31-25L292.31-25Q292.96-25 293.46-24.85L293.46-24.85 293.01-19.9Q292.36-20.05 291.51-20.05L291.51-20.05Q289.86-20.05 288.41-19.23 286.96-18.4 286.31-17.3L286.31-17.3 286.31 0 281.96 0ZM310.96-37.5L315.31-37.5 315.31 0 311.46 0 311.11-2.25Q309.96-0.9 308.36-0.2 306.76 0.5 304.86 0.5L304.86 0.5Q302.01 0.5 299.76-1.18 297.51-2.85 296.21-5.75 294.91-8.65 294.91-12.2L294.91-12.2Q294.91-15.65 296.14-18.57 297.36-21.5 299.64-23.25 301.91-25 304.86-25L304.86-25Q308.51-25 310.96-22.45L310.96-22.45 310.96-37.5ZM305.31-3.35Q308.06-3.35 309.71-5.53 311.36-7.7 311.36-12.2L311.36-12.2Q311.36-16.55 309.71-18.82 308.06-21.1 305.31-21.1L305.31-21.1Q303.61-21.1 302.26-19.95 300.91-18.8 300.14-16.78 299.36-14.75 299.36-12.2L299.36-12.2Q299.36-9.8 300.14-7.78 300.91-5.75 302.29-4.55 303.66-3.35 305.31-3.35L305.31-3.35ZM320.91 0L320.91-24.5 324.46-24.5 325.01-20.4Q326.66-22.8 328.13-23.9 329.61-25 331.26-25L331.26-25Q331.91-25 332.41-24.85L332.41-24.85 331.96-19.9Q331.31-20.05 330.46-20.05L330.46-20.05Q328.81-20.05 327.36-19.23 325.91-18.4 325.26-17.3L325.26-17.3 325.26 0 320.91 0ZM344.26 0.5Q340.96 0.5 338.56-1.18 336.16-2.85 334.88-5.75 333.61-8.65 333.61-12.25L333.61-12.25Q333.61-15.85 334.88-18.75 336.16-21.65 338.56-23.33 340.96-25 344.26-25L344.26-25Q347.51-25 349.91-23.33 352.31-21.65 353.56-18.75 354.81-15.85 354.81-12.25L354.81-12.25Q354.81-8.65 353.56-5.75 352.31-2.85 349.91-1.18 347.51 0.5 344.26 0.5L344.26 0.5ZM344.26-3.35Q347.16-3.35 348.76-5.7 350.36-8.05 350.36-12.25L350.36-12.25Q350.36-16.45 348.76-18.78 347.16-21.1 344.26-21.1L344.26-21.1Q341.26-21.1 339.66-18.78 338.06-16.45 338.06-12.25L338.06-12.25Q338.06-8 339.66-5.68 341.26-3.35 344.26-3.35L344.26-3.35ZM369.25-25Q372.2-25 374.38-23.25 376.55-21.5 377.7-18.57 378.85-15.65 378.85-12.25L378.85-12.25Q378.85-8.7 377.65-5.78 376.45-2.85 374.28-1.18 372.1 0.5 369.25 0.5L369.25 0.5Q367.25 0.5 365.53-0.25 363.8-1 362.65-2.4L362.65-2.4 362.45 0 358.5 0 358.5-37.5 362.85-37.5 362.85-22.15Q365.45-25 369.25-25L369.25-25ZM368.5-3.35Q371.15-3.35 372.78-5.93 374.4-8.5 374.4-12.25L374.4-12.25Q374.4-16.1 372.8-18.6 371.2-21.1 368.5-21.1L368.5-21.1Q365.8-21.1 364.13-18.82 362.45-16.55 362.45-12.25L362.45-12.25Q362.45-7.8 364.13-5.58 365.8-3.35 368.5-3.35L368.5-3.35ZM393.55 0.5Q389.85 0.5 387.23-1.23 384.6-2.95 383.28-5.9 381.95-8.85 381.95-12.45L381.95-12.45Q381.95-15.9 383.18-18.78 384.4-21.65 386.73-23.33 389.05-25 392.25-25L392.25-25Q396.35-25 398.93-22.25 401.5-19.5 401.5-14.65L401.5-14.65Q401.5-13.8 401.3-12.3L401.3-12.3 386.4-12.3Q386.55-7.95 388.58-5.7 390.6-3.45 393.85-3.45L393.85-3.45Q395.4-3.45 397.13-3.83 398.85-4.2 400.15-4.9L400.15-4.9 400.55-1Q397.8 0.5 393.55 0.5L393.55 0.5ZM386.6-15.35L397.05-15.35Q397.05-17.85 395.83-19.43 394.6-21 392.3-21L392.3-21Q390.05-21 388.58-19.6 387.1-18.2 386.6-15.35L386.6-15.35ZM425.7-25Q428.65-25 430.87-23.33 433.1-21.65 434.27-18.75 435.45-15.85 435.45-12.25L435.45-12.25Q435.45-6.65 432.9-3.08 430.35 0.5 425.7 0.5L425.7 0.5Q423.8 0.5 422.17-0.18 420.55-0.85 419.4-2.15L419.4-2.15 419.4 12.1 415.05 12.1 415.05-24.5 418.4-24.5 418.8-21.55Q421.45-25 425.7-25L425.7-25ZM424.9-3.35Q427.75-3.35 429.37-5.7 431-8.05 431-12.25L431-12.25Q431-16.4 429.37-18.75 427.75-21.1 424.9-21.1L424.9-21.1Q423.4-21.1 422-20.1 420.6-19.1 419.72-17.1 418.85-15.1 418.85-12.25L418.85-12.25Q418.85-9.3 419.72-7.3 420.6-5.3 421.97-4.33 423.35-3.35 424.9-3.35L424.9-3.35ZM444.14 0.5Q441.34 0.5 439.54-1.5 437.74-3.5 437.74-6.6L437.74-6.6Q437.74-11.2 441.59-13.23 445.44-15.25 450.19-15.35L450.19-15.35Q450.19-18.55 449.24-19.8 448.29-21.05 446.04-21.05L446.04-21.05Q443.14-21.05 440.14-18.8L440.14-18.8 439.59-22.45Q442.74-25 446.89-25L446.89-25Q450.84-25 452.74-22.73 454.64-20.45 454.64-15.4L454.64-15.4 454.64-8.25Q454.64-5.4 455.04-4.23 455.44-3.05 456.79-3.05L456.79-3.05 457.34-3.05 456.79 0.5 455.84 0.5Q453.54 0.5 452.44-0.35 451.34-1.2 450.64-3.1L450.64-3.1Q449.49-1.45 447.79-0.48 446.09 0.5 444.14 0.5L444.14 0.5ZM445.49-3.05Q446.69-3.05 447.99-3.98 449.29-4.9 450.19-6.4L450.19-6.4 450.19-12.25Q446.34-12.05 444.34-10.78 442.34-9.5 442.34-6.85L442.34-6.85Q442.34-3.05 445.49-3.05L445.49-3.05ZM461.09 0L461.09-24.5 464.64-24.5 465.19-20.4Q466.84-22.8 468.32-23.9 469.79-25 471.44-25L471.44-25Q472.09-25 472.59-24.85L472.59-24.85 472.14-19.9Q471.49-20.05 470.64-20.05L470.64-20.05Q468.99-20.05 467.54-19.23 466.09-18.4 465.44-17.3L465.44-17.3 465.44 0 461.09 0ZM482.84 0.5Q479.99 0.5 478.61-1.2 477.24-2.9 477.24-5.35L477.24-5.35 477.24-21.05 473.84-21.05 474.24-24.5 477.24-24.5 477.24-30.55 481.59-31 481.59-24.5 486.89-24.5 486.89-21.05 481.59-21.05 481.59-7.1Q481.59-4.85 482.41-3.95 483.24-3.05 485.29-3.05L485.29-3.05 486.84-3.05 486.44 0.5 482.84 0.5ZM501.14-25Q504.94-25 506.96-22.03 508.99-19.05 508.99-14L508.99-14 508.99 0 504.64 0 504.64-13.45Q504.64-17.35 503.51-19.23 502.39-21.1 500.14-21.1L500.14-21.1Q498.49-21.1 497.09-20.18 495.69-19.25 494.74-17.6L494.74-17.6 494.74 0 490.39 0 490.39-24.5 494.09-24.5 494.39-21.45Q495.44-23.1 497.21-24.05 498.99-25 501.14-25L501.14-25ZM524.18 0.5Q520.48 0.5 517.86-1.23 515.23-2.95 513.91-5.9 512.58-8.85 512.58-12.45L512.58-12.45Q512.58-15.9 513.81-18.78 515.03-21.65 517.36-23.33 519.68-25 522.88-25L522.88-25Q526.98-25 529.56-22.25 532.13-19.5 532.13-14.65L532.13-14.65Q532.13-13.8 531.93-12.3L531.93-12.3 517.03-12.3Q517.18-7.95 519.21-5.7 521.23-3.45 524.48-3.45L524.48-3.45Q526.03-3.45 527.76-3.83 529.48-4.2 530.78-4.9L530.78-4.9 531.18-1Q528.43 0.5 524.18 0.5L524.18 0.5ZM517.23-15.35L527.68-15.35Q527.68-17.85 526.46-19.43 525.23-21 522.93-21L522.93-21Q520.68-21 519.21-19.6 517.73-18.2 517.23-15.35L517.23-15.35ZM536.03 0L536.03-24.5 539.58-24.5 540.13-20.4Q541.78-22.8 543.26-23.9 544.73-25 546.38-25L546.38-25Q547.03-25 547.53-24.85L547.53-24.85 547.08-19.9Q546.43-20.05 545.58-20.05L545.58-20.05Q543.93-20.05 542.48-19.23 541.03-18.4 540.38-17.3L540.38-17.3 540.38 0 536.03 0Z" opacity="1" transform="matrix(1,0,0,1,0,0)" fill="#61777f" class="slogan-text-1" data-fill-palette-color="secondary" id="text-1"></path></svg></g></svg></g></svg></g></svg></g><g transform="matrix(1,0,0,1,0,0.3805019354979038)"><svg viewBox="0 0 99.22577273140473 152.2007741991667" height="152.2007741991667" width="99.22577273140473"><g><svg xmlns="http://www.w3.org/2000/svg" xmlns:xlink="http://www.w3.org/1999/xlink" version="1.1" x="0" y="0" viewBox="14.282 0 65.194 100" enable-background="new 0 0 100 100" xml:space="preserve" height="152.2007741991667" width="99.22577273140473" class="icon-icon-0" data-fill-palette-color="accent" id="icon-0"><path fill="#d2d6dc" d="M77.212 0H47.947v95.029h29.265c1.253 0 2.264-1.016 2.264-2.265V2.262C79.476 1.013 78.465 0 77.212 0zM55.04 48.829c0 0.828-0.672 1.496-1.495 1.496-0.828 0-1.496-0.667-1.496-1.496v-8.293c0-0.828 0.668-1.498 1.496-1.498 0.823 0 1.495 0.67 1.495 1.498V48.829z" data-fill-palette-color="accent"></path><path fill="#d2d6dc" d="M16.546 0c-1.249 0-2.264 1.013-2.264 2.262v90.503c0 1.249 1.015 2.265 2.264 2.265h29.26V0H16.546zM41.713 48.829c0 0.828-0.672 1.496-1.5 1.496s-1.496-0.667-1.496-1.496v-8.293c0-0.828 0.668-1.498 1.496-1.498s1.5 0.67 1.5 1.498V48.829z" data-fill-palette-color="accent"></path><path fill="#d2d6dc" d="M74.495 97.869c-0.695-0.515-0.741-1.379-0.741-1.379h-2.085c0 0-0.041 0.864-0.736 1.379-0.69 0.512-1.065 0.478-1.065 1.065S70.343 100 70.933 100h3.562c0.59 0 1.065-0.478 1.065-1.065S75.186 98.381 74.495 97.869z" data-fill-palette-color="accent"></path><path fill="#d2d6dc" d="M22.826 97.869c-0.695-0.515-0.736-1.379-0.736-1.379H20c0 0-0.037 0.864-0.736 1.379-0.691 0.512-1.066 0.478-1.066 1.065S18.678 100 19.263 100h3.562c0.585 0 1.061-0.478 1.061-1.065S23.516 98.381 22.826 97.869z" data-fill-palette-color="accent"></path></svg></g></svg></g></svg></g><defs></defs></svg><rect width="395.52" height="109.1373518128122" fill="none" stroke="none" visibility="hidden"></rect></g></svg></g></svg>